<svg width="24" height="24" viewBox="0 0 24 24" fill="none" xmlns="http://www.w3.org/2000/svg">
<g filter="url(#filter0_d_1_21)">
<path d="M2 7C2 6.07069 2 5.60603 2.07686 5.21964C2.39249 3.63288 3.63288 2.39249 5.21964 2.07686C5.60603 2 6.07069 2 7 2H7.75C9.84012 2 10.8852 2 11.7608 2.12988C16.9892 2.90545 21.0945 7.01076 21.8701 12.2392C22 13.1148 22 14.1599 22 16.25V16.25C22 16.9467 22 17.2951 21.9567 17.5869C21.6982 19.3297 20.3297 20.6982 18.5869 20.9567C18.2951 21 17.9467 21 17.25 21H8.4C6.15979 21 5.03968 21 4.18404 20.564C3.43139 20.1805 2.81947 19.5686 2.43597 18.816C2 17.9603 2 16.8402 2 14.6V7Z" fill="#9011FF" fill-opacity="0.12" shape-rendering="crispEdges"/>
</g>
<path d="M7.5483 16H5.28125L8.22585 7.27273H11.0341L13.9787 16H11.7116L9.66193 9.47159H9.59375L7.5483 16ZM7.24574 12.5653H11.9844V14.1676H7.24574V12.5653ZM14.3635 16.1108C13.9459 16.1108 13.5751 16.0412 13.2513 15.902C12.9303 15.7599 12.676 15.5469 12.4885 15.2628C12.3038 14.9759 12.2115 14.6165 12.2115 14.1847C12.2115 13.821 12.2754 13.5142 12.4033 13.2642C12.5311 13.0142 12.7072 12.8111 12.9317 12.6548C13.1561 12.4986 13.4146 12.3807 13.7072 12.3011C13.9999 12.2187 14.3124 12.1634 14.6447 12.1349C15.0169 12.1009 15.3166 12.0653 15.5439 12.0284C15.7712 11.9886 15.9359 11.9332 16.0382 11.8622C16.1433 11.7884 16.1959 11.6847 16.1959 11.5511V11.5298C16.1959 11.3111 16.1206 11.142 15.97 11.0227C15.8195 10.9034 15.6163 10.8438 15.3607 10.8438C15.0851 10.8438 14.8635 10.9034 14.6959 11.0227C14.5283 11.142 14.4217 11.3068 14.3763 11.517L12.4544 11.4489C12.5112 11.0511 12.6575 10.696 12.8933 10.3835C13.132 10.0682 13.4587 9.82102 13.8734 9.64205C14.2911 9.46023 14.7925 9.36932 15.3777 9.36932C15.7953 9.36932 16.1803 9.41903 16.5325 9.51847C16.8848 9.61506 17.1916 9.7571 17.453 9.9446C17.7143 10.1293 17.9161 10.3565 18.0581 10.6264C18.203 10.8963 18.2754 11.2045 18.2754 11.5511V16H16.3152V15.0881H16.2641C16.1476 15.3097 15.9984 15.4972 15.8166 15.6506C15.6376 15.804 15.426 15.919 15.1817 15.9957C14.9402 16.0724 14.6675 16.1108 14.3635 16.1108ZM15.007 14.7472C15.2314 14.7472 15.4331 14.7017 15.6121 14.6108C15.7939 14.5199 15.9388 14.3949 16.0467 14.2358C16.1547 14.0739 16.2087 13.8864 16.2087 13.6733V13.0511C16.149 13.0824 16.0766 13.1108 15.9913 13.1364C15.9089 13.1619 15.818 13.1861 15.7186 13.2088C15.6192 13.2315 15.5169 13.2514 15.4118 13.2685C15.3067 13.2855 15.2058 13.3011 15.1092 13.3153C14.9132 13.3466 14.7456 13.3949 14.6064 13.4602C14.47 13.5256 14.3649 13.6108 14.2911 13.7159C14.22 13.8182 14.1845 13.9403 14.1845 14.0824C14.1845 14.2983 14.2612 14.4631 14.4146 14.5767C14.5709 14.6903 14.7683 14.7472 15.007 14.7472Z" fill="#9011FF" fill-opacity="0.6"/>
<defs>
<filter id="filter0_d_1_21" x="1.5" y="1.5" width="21" height="20" filterUnits="userSpaceOnUse" color-interpolation-filters="sRGB">
<feFlood flood-opacity="0" result="BackgroundImageFix"/>
<feColorMatrix in="SourceAlpha" type="matrix" values="0 0 0 0 0 0 0 0 0 0 0 0 0 0 0 0 0 0 127 0" result="hardAlpha"/>
<feOffset/>
<feGaussianBlur stdDeviation="0.25"/>
<feComposite in2="hardAlpha" operator="out"/>
<feColorMatrix type="matrix" values="0 0 0 0 0.458878 0 0 0 0 0 0 0 0 0 0.859945 0 0 0 1 0"/>
<feBlend mode="normal" in2="BackgroundImageFix" result="effect1_dropShadow_1_21"/>
<feBlend mode="normal" in="SourceGraphic" in2="effect1_dropShadow_1_21" result="shape"/>
</filter>
</defs>
</svg>
